<svg xmlns="http://www.w3.org/2000/svg" width="72" height="42" viewBox="0 0 72 42">
  <path fill="#FFF" fill-rule="evenodd" d="M9,30 C10.6568542,30 12,31.3431458 12,33 L12,39 C12,40.6568542 10.6568542,42 9,42 L3,42 C1.34314575,42 0,40.6568542 0,39 L0,33 C0,31.3431458 1.34314575,30 3,30 L9,30 Z M69,33 C70.6568542,33 72,34.3431458 72,36 C72,37.6568542 70.6568542,39 69,39 L21,39 C19.3431458,39 18,37.6568542 18,36 C18,34.3431458 19.3431458,33 21,33 L69,33 Z M8,33 L4,33 C3.48716416,33 3.06449284,33.3860402 3.00672773,33.8833789 L3,34 L3,38 C3,38.5128358 3.38604019,38.9355072 3.88337887,38.9932723 L4,39 L8,39 C8.51283584,39 8.93550716,38.6139598 8.99327227,38.1166211 L9,38 L9,34 C9,33.4477153 8.55228475,33 8,33 Z M9,15 C10.6568542,15 12,16.3431458 12,18 L12,24 C12,25.6568542 10.6568542,27 9,27 L3,27 C1.34314575,27 0,25.6568542 0,24 L0,18 C0,16.3431458 1.34314575,15 3,15 L9,15 Z M69,18 C70.6568542,18 72,19.3431458 72,21 C72,22.6568542 70.6568542,24 69,24 L21,24 C19.3431458,24 18,22.6568542 18,21 C18,19.3431458 19.3431458,18 21,18 L69,18 Z M8,18 L4,18 C3.48716416,18 3.06449284,18.3860402 3.00672773,18.8833789 L3,19 L3,23 C3,23.5128358 3.38604019,23.9355072 3.88337887,23.9932723 L4,24 L8,24 C8.51283584,24 8.93550716,23.6139598 8.99327227,23.1166211 L9,23 L9,19 C9,18.4477153 8.55228475,18 8,18 Z M9,0 C10.6568542,0 12,1.34314575 12,3 L12,9 C12,10.6568542 10.6568542,12 9,12 L3,12 C1.34314575,12 0,10.6568542 0,9 L0,3 C0,1.34314575 1.34314575,0 3,0 L9,0 Z M69,3 C70.6568542,3 72,4.34314575 72,6 C72,7.65685425 70.6568542,9 69,9 L21,9 C19.3431458,9 18,7.65685425 18,6 C18,4.34314575 19.3431458,3 21,3 L69,3 Z M8,3 L4,3 C3.48716416,3 3.06449284,3.38604019 3.00672773,3.88337887 L3,4 L3,8 C3,8.51283584 3.38604019,8.93550716 3.88337887,8.99327227 L4,9 L8,9 C8.51283584,9 8.93550716,8.61395981 8.99327227,8.11662113 L9,8 L9,4 C9,3.44771525 8.55228475,3 8,3 Z"/>
</svg>
