<svg xmlns="http://www.w3.org/2000/svg" viewBox="0 0 72 42"><path fill="#FFF" fill-rule="evenodd" d="M25.179-.001a21.088 21.088 0 0 0-4.028 3.152C17.35 6.95 15 12.2 15 18c0 5.165 1.865 9.894 4.958 13.55a5.007 5.007 0 0 0-2.074 1.988l-.133.252-3.04 6.333-.044.24a4.061 4.061 0 0 0 .077 1.638L6 42a6 6 0 0 1-6-6V6a6 6 0 0 1 6-6l19.179-.001ZM66 0a6 6 0 0 1 6 6v30a6 6 0 0 1-6 6l-8.745.001a3.983 3.983 0 0 0-.19-2.563l-.105-.227-2.724-5.447-.134-.25a4.996 4.996 0 0 0-1.71-1.767 3.884 3.884 0 0 0-.35-.195A20.915 20.915 0 0 0 57 18c0-5.8-2.35-11.05-6.15-14.85A21.088 21.088 0 0 0 46.823 0H66ZM49.764 34a2 2 0 0 1 1.789 1.106l2.723 5.447A1 1 0 0 1 53.382 42H18.618a1 1 0 0 1-.894-1.447l2.723-5.447A2 2 0 0 1 22.237 34h27.527ZM36 0c9.941 0 18 8.059 18 18 0 5.11-2.13 9.724-5.55 13h-24.9A17.947 17.947 0 0 1 18 18c0-9.941 8.059-18 18-18Zm0 3c-2.289 0-4.458.51-6.399 1.424a6.001 6.001 0 1 1-7.62 8.194 14.861 14.861 0 0 0-.981 5.33c0 3.623 1.298 7.036 3.596 9.711l.302.341h22.203l.043-.046a14.852 14.852 0 0 0 3.851-9.631l.005-.375C51 9.693 44.285 3 36 3Z"/></svg>