<svg xmlns="http://www.w3.org/2000/svg" viewBox="0 0 72 42"><path fill="#FFF" fill-rule="evenodd" d="M72 30v6a6 6 0 0 1-6 6H6a6 6 0 0 1-6-6v-6h72Zm-55 3H7l-.157.006a2 2 0 0 0-1.838 1.845L5 35v2l.006.157a2 2 0 0 0 1.845 1.838L7 39h10v-6Zm12 0H19v6h10l.157-.006a2 2 0 0 0 1.838-1.845L31 37v-2l-.005-.15A2 2 0 0 0 29 33Zm17 0h-4v6h4v-6Zm-6 0h-2l-.157.006a2 2 0 0 0-1.838 1.845L36 35v2l.006.157a2 2 0 0 0 1.845 1.838L38 39h2v-6Zm12 0h-4v6h4v-6Zm4 0h-2v6h2l.157-.006a2 2 0 0 0 1.838-1.845L58 37v-2l-.005-.15A2 2 0 0 0 56 33Zm9 0a2 2 0 0 0-1.995 1.85L63 35v2l.005.15a2 2 0 0 0 3.99 0L67 37v-2l-.005-.15A2 2 0 0 0 65 33Zm7-18v12H0V15h72Zm-55 3H7l-.157.006a2 2 0 0 0-1.838 1.845L5 20v2l.006.157a2 2 0 0 0 1.845 1.838L7 24h10v-6Zm12 0H19v6h10l.157-.006a2 2 0 0 0 1.838-1.845L31 22v-2l-.005-.15A2 2 0 0 0 29 18Zm17 0h-4v6h4v-6Zm-6 0h-2l-.157.006a2 2 0 0 0-1.838 1.845L36 20v2l.006.157a2 2 0 0 0 1.845 1.838L38 24h2v-6Zm12 0h-4v6h4v-6Zm4 0h-2v6h2l.157-.006a2 2 0 0 0 1.838-1.845L58 22v-2l-.005-.15A2 2 0 0 0 56 18Zm9 0a2 2 0 0 0-1.995 1.85L63 20v2l.005.15a2 2 0 0 0 3.99 0L67 22v-2l-.005-.15A2 2 0 0 0 65 18Zm1-18a6 6 0 0 1 6 6v6H0V6a6 6 0 0 1 6-6h60ZM17 3H7l-.157.006a2 2 0 0 0-1.838 1.845L5 5v2l.006.157a2 2 0 0 0 1.845 1.838L7 9h10V3Zm12 0H19v6h10l.157-.006a2 2 0 0 0 1.838-1.845L31 7V5l-.005-.15A2 2 0 0 0 29 3Zm17 0h-4v6h4V3Zm-6 0h-2l-.157.006a2 2 0 0 0-1.838 1.845L36 5v2l.006.157a2 2 0 0 0 1.845 1.838L38 9h2V3Zm12 0h-4v6h4V3Zm4 0h-2v6h2l.157-.006a2 2 0 0 0 1.838-1.845L58 7V5l-.005-.15A2 2 0 0 0 56 3Zm9 0a2 2 0 0 0-1.995 1.85L63 5v2l.005.15a2 2 0 0 0 3.99 0L67 7V5l-.005-.15A2 2 0 0 0 65 3Z"/></svg>