<svg xmlns="http://www.w3.org/2000/svg" viewBox="0 0 72 42"><path fill="#FFF" fill-rule="evenodd" d="M24 36a1 1 0 0 1 1 1v4a1 1 0 0 1-1 1H4.875C2.183 42 0 39.314 0 36h24Zm25.5-13.5v19.447c-10.402-.734-18.713-9.044-19.447-19.446L49.5 22.5Zm3-22.447C63.399.823 72 9.907 72 21s-8.602 20.178-19.5 20.947V.053ZM18 27a1 1 0 0 1 1 1v4a1 1 0 0 1-1 1H0v-6h18Zm-6-9a1 1 0 0 1 1 1v4a1 1 0 0 1-1 1H0v-6h12ZM35.128 7.25l12.25 12.25H30.053c.33-4.67 2.186-8.92 5.075-12.25ZM49.5.052v17.325L37.25 5.128A20.911 20.911 0 0 1 49.5.053ZM18 9a1 1 0 0 1 1 1v4a1 1 0 0 1-1 1H0V9h18Zm6-9a1 1 0 0 1 1 1v4a1 1 0 0 1-1 1H0a6 6 0 0 1 6-6h18Z"/></svg>