<svg xmlns="http://www.w3.org/2000/svg" viewBox="0 0 72 42"><path fill="#FFF" fill-rule="evenodd" d="M66 30a6 6 0 1 1 0 12H6a6 6 0 1 1 0-12h4v3.17a3.002 3.002 0 0 0-1.994 2.636L8 36a3 3 0 0 0 5.829 1h19.342a3.001 3.001 0 0 0 5.658 0h19.342a3.001 3.001 0 1 0 3.83-3.829L62 30h4Zm-31 0v3.17A3.008 3.008 0 0 0 33.17 35H13.83A3.008 3.008 0 0 0 12 33.171V30h23Zm25 0v3.17A3.008 3.008 0 0 0 58.17 35H38.83A3.008 3.008 0 0 0 37 33.171V30h23ZM16 0a6 6 0 0 1 6 6v15a6 6 0 0 1-6 6H6a6 6 0 0 1-6-6V6a6 6 0 0 1 6-6h10Zm50 0a6 6 0 0 1 6 6v15a6 6 0 0 1-6 6H56a6 6 0 0 1-6-6V6a6 6 0 0 1 6-6h10ZM41 0a6 6 0 0 1 6 6v15a6 6 0 0 1-6 6H31a6 6 0 0 1-6-6V6a6 6 0 0 1 6-6h10ZM13.5 21a1.5 1.5 0 1 0 0 3 1.5 1.5 0 0 0 0-3Zm25 0a1.5 1.5 0 1 0 0 3 1.5 1.5 0 0 0 0-3Zm25 0a1.5 1.5 0 1 0 0 3 1.5 1.5 0 0 0 0-3Zm-46-1a1.5 1.5 0 1 0 0 3 1.5 1.5 0 0 0 0-3Zm25 0a1.5 1.5 0 1 0 0 3 1.5 1.5 0 0 0 0-3Zm25 0a1.5 1.5 0 1 0 0 3 1.5 1.5 0 0 0 0-3Zm-54-4a1.5 1.5 0 1 0 0 3 1.5 1.5 0 0 0 0-3Zm25 0a1.5 1.5 0 1 0 0 3 1.5 1.5 0 0 0 0-3Zm25 0a1.5 1.5 0 1 0 0 3 1.5 1.5 0 0 0 0-3Zm-46-1a1.5 1.5 0 1 0 0 3 1.5 1.5 0 0 0 0-3Zm25 0a1.5 1.5 0 1 0 0 3 1.5 1.5 0 0 0 0-3Zm25 0a1.5 1.5 0 1 0 0 3 1.5 1.5 0 0 0 0-3Zm-54-4a1.5 1.5 0 1 0 0 3 1.5 1.5 0 0 0 0-3Zm25 0a1.5 1.5 0 1 0 0 3 1.5 1.5 0 0 0 0-3Zm25 0a1.5 1.5 0 1 0 0 3 1.5 1.5 0 0 0 0-3Zm-46-1a1.5 1.5 0 1 0 0 3 1.5 1.5 0 0 0 0-3Zm25 0a1.5 1.5 0 1 0 0 3 1.5 1.5 0 0 0 0-3Zm25 0a1.5 1.5 0 1 0 0 3 1.5 1.5 0 0 0 0-3ZM16 2H6a3 3 0 1 0 0 6h10a3 3 0 0 0 0-6Zm25 0H31a3 3 0 0 0 0 6h10a3 3 0 0 0 0-6Zm25 0H56a3 3 0 0 0 0 6h10a3 3 0 0 0 0-6Z"/></svg>